<?xml version="1.0" encoding="utf-8"?>
<!-- Generator: Adobe Illustrator 22.0.1, SVG Export Plug-In . SVG Version: 6.00 Build 0)  -->
<svg version="1.1" xmlns="http://www.w3.org/2000/svg" xmlns:xlink="http://www.w3.org/1999/xlink" x="0px" y="0px"
	 viewBox="0 0 512 512" style="enable-background:new 0 0 512 512;" xml:space="preserve">
<style type="text/css">
	.st0{fill:#7585F0;stroke:#000000;stroke-width:20;stroke-linecap:round;stroke-linejoin:round;stroke-miterlimit:10;}
	.st1{fill:none;stroke:#000000;stroke-width:20;stroke-linecap:round;stroke-linejoin:round;stroke-miterlimit:10;}
	.st2{fill:#FFFFFF;}
	.st3{fill:#E4B75C;stroke:#000000;stroke-width:20;stroke-linecap:round;stroke-linejoin:round;stroke-miterlimit:10;}
	.st4{fill:#DE5A5A;stroke:#000000;stroke-width:20;stroke-linecap:round;stroke-linejoin:round;stroke-miterlimit:10;}
	.st5{fill:#D4F4FF;}
	.st6{fill:#D4F4FF;stroke:#000000;stroke-width:20;stroke-linecap:round;stroke-linejoin:round;stroke-miterlimit:10;}
	.st7{fill:#F2DF98;stroke:#000000;stroke-width:20;stroke-linecap:round;stroke-linejoin:round;stroke-miterlimit:10;}
	.st8{fill:#FFFFFF;stroke:#000000;stroke-width:20;stroke-linecap:round;stroke-linejoin:round;stroke-miterlimit:10;}
	.st9{fill:#87BF8C;stroke:#000000;stroke-width:20;stroke-linecap:round;stroke-linejoin:round;stroke-miterlimit:10;}
	.st10{fill:#7585F0;}
	.st11{fill:#EDD4B4;stroke:#000000;stroke-width:20;stroke-linecap:round;stroke-linejoin:round;stroke-miterlimit:10;}
	.st12{fill:#E4B75C;}
	.st13{fill:#AACF9A;stroke:#000000;stroke-width:20;stroke-linecap:round;stroke-linejoin:round;stroke-miterlimit:10;}
	.st14{fill:#E8C673;stroke:#000000;stroke-width:20;stroke-linecap:round;stroke-linejoin:round;stroke-miterlimit:10;}
	.st15{fill:#F2DF98;}
	.st16{fill:#D0524E;stroke:#000000;stroke-width:20;stroke-linecap:round;stroke-linejoin:round;stroke-miterlimit:10;}
	.st17{fill:#87BF8C;}
	.st18{fill:#AACF9A;}
	.st19{fill:#DE5A5A;}
	.st20{fill:#E8C673;}
	.st21{fill:#7ACBAA;}
	.st22{fill:#EFCDC2;}
	.st23{fill:#6B7DFA;stroke:#000000;stroke-width:20;stroke-linecap:round;stroke-linejoin:round;stroke-miterlimit:10;}
</style>
<g id="GUIDELINES">
</g>
<g id="ICON_1_">
	<g>
		<g>
			<path class="st10" d="M20,144.8v-43.4C20,79.1,38.1,61,60.4,61H347c22.3,0,40.4,18.1,40.4,40.4v360.2c0,22.3-18.1,40.4-40.4,40.4
				H60.4C38.1,502,20,483.9,20,461.6V213.8"/>
			<path class="st1" d="M387.4,243.5v218.1c0,22.3-18.1,40.4-40.4,40.4H60.4C38.1,502,20,483.9,20,461.6V213.8"/>
			<path class="st1" d="M20,144.8v-43.4C20,79.1,38.1,61,60.4,61H142"/>
			<g>
				<path class="st2" d="M347.4,320V213.8v-96.9c0-8.7-7.1-15.9-15.9-15.9h-241H75.9c-8.8,0-15.9,7.1-15.9,15.9v329.3
					c0,8.8,7.1,15.9,15.9,15.9h208.5l63.1-63.1"/>
				<path class="st1" d="M99.9,101H75.9c-8.8,0-15.9,7.1-15.9,15.9v329.3c0,8.8,7.1,15.9,15.9,15.9h208.5l63.1-63.1"/>
				<line class="st1" x1="347.4" y1="320" x2="347.4" y2="213.8"/>
				<path class="st6" d="M284.3,462h47.2c8.8,0,15.9-7.1,15.9-15.9v-47.2L284.3,462z"/>
				<path class="st6" d="M347.4,398.9h-47.2c-8.8,0-15.9,7.1-15.9,15.9V462L347.4,398.9z"/>
			</g>
			<g>
				<g>
					<path class="st6" d="M146,206.8h-33.9c-6.7,0-12.2-5.5-12.2-12.2v-33.9c0-6.7,5.5-12.2,12.2-12.2H146c6.7,0,12.2,5.5,12.2,12.2
						v33.9C158.2,201.4,152.7,206.8,146,206.8z"/>
					<line class="st1" x1="210.4" y1="155.9" x2="296.3" y2="155.9"/>
					<line class="st1" x1="210.4" y1="190.6" x2="262.7" y2="190.6"/>
				</g>
				<g>
					<path class="st7" d="M146,306.6h-33.9c-6.7,0-12.2-5.5-12.2-12.2v-33.9c0-6.7,5.5-12.2,12.2-12.2H146c6.7,0,12.2,5.5,12.2,12.2
						v33.9C158.2,301.1,152.7,306.6,146,306.6z"/>
					<line class="st1" x1="210.4" y1="255.6" x2="296.3" y2="255.6"/>
					<line class="st1" x1="210.4" y1="290.3" x2="262.7" y2="290.3"/>
				</g>
				<g>
					<path class="st9" d="M146,406.3h-33.9c-6.7,0-12.2-5.5-12.2-12.2v-33.9c0-6.7,5.5-12.2,12.2-12.2H146c6.7,0,12.2,5.5,12.2,12.2
						v33.9C158.2,400.9,152.7,406.3,146,406.3z"/>
					<line class="st1" x1="210.4" y1="355.4" x2="296.3" y2="355.4"/>
					<line class="st1" x1="210.4" y1="390.1" x2="262.7" y2="390.1"/>
				</g>
			</g>
			<path class="st3" d="M248.2,61c0.5-2.2,0.6-5.4,0.5-8.6c-1.3-23-20.2-41.5-43.2-42.3c-25.6-1-46.7,19.5-46.7,45
				c0,2.4,0.2,4.7,0.5,6"/>
		</g>
		<g>
			<g>
				<g>
					<path class="st4" d="M512,134.1v-17.4c0-6-4.1-11.3-9.9-12.8l-9.7-2.5c-2.3-9.3-6-18.3-11.1-26.7l7.1-11
						c3.4-5.2,2.6-12.1-1.8-16.5l-11.7-11.7c-4.4-4.4-11.3-5.1-16.5-1.8l-11,7.1c-8.4-5-17.4-8.7-26.7-11.1l-2.5-9.7
						c-1.5-5.8-6.8-9.9-12.8-9.9l-17.4,0c-6,0-11.3,4.1-12.8,9.9l-2.5,9.7c-9.3,2.3-18.3,6-26.7,11.1l-11-7.1
						c-5.2-3.4-12.1-2.6-16.5,1.8l-11.7,11.7c-4.4,4.4-5.1,11.3-1.8,16.5l7.1,11c-5,8.4-8.7,17.4-11.1,26.7l-9.7,2.5
						c-5.8,1.5-9.9,6.8-9.9,12.8l0,17.4c0,6,4.1,11.3,9.9,12.8l9.7,2.5c2.3,9.3,6,18.3,11.1,26.7l-7.1,11
						c-3.4,5.2-2.6,12.1,1.8,16.5l11.7,11.7c4.4,4.4,11.3,5.1,16.5,1.8l11-7.1c8.4,5,17.4,8.7,26.7,11.1l2.5,9.7
						c1.5,5.8,6.8,9.9,12.8,9.9h17.4c6,0,11.3-4.1,12.8-9.9l2.5-9.7c9.3-2.3,18.3-6,26.7-11.1l11,7.1c5.2,3.4,12.1,2.6,16.5-1.8
						l11.7-11.7c4.4-4.4,5.1-11.3,1.8-16.5l-7.1-11c5-8.4,8.7-17.4,11.1-26.7l9.7-2.5C507.9,145.4,512,140.1,512,134.1z"/>
				</g>
			</g>
			<path class="st7" d="M203.7,61H101.2v30.9c0,13.8,11.2,25,25,25h154.9c0,0,0.1,0,0.1,0v-0.3c0-6,4.1-11.3,9.9-12.8l9.7-2.5
				c1.3-5.3,3.1-10.5,5.3-15.6V65.7l-1.3-2.1c-0.5-0.8-1-1.7-1.3-2.7h-55.4"/>
			
				<ellipse transform="matrix(0.7071 -0.7071 0.7071 0.7071 27.5016 317.172)" class="st2" cx="396.6" cy="125.4" rx="65.7" ry="65.7"/>
			<path class="st1" d="M462.3,125.4c0,36.3-29.4,65.7-65.7,65.7c-36.3,0-65.7-29.4-65.7-65.7s29.4-65.7,65.7-65.7"/>
			<polyline class="st1" points="396.6,89.2 396.6,125.4 424.4,125.4 			"/>
		</g>
	</g>
</g>
</svg>
